{"asset":{"generator":"glTF-Transform v4.0.2","version":"2.0","extras":{"author":"DibArts (https://sketchfab.com/youssefe22)","license":"CC-BY-4.0 (http://creativecommons.org/licenses/by/4.0/)","source":"https://sketchfab.com/3d-models/goose-1262a306b5604499ae6778a73240c0cd","title":"Goose"}},"accessors":[{"type":"VEC3","componentType":5126,"count":805,"max":[2.4892783164978027,2.974116563796997,0.8543270230293274],"min":[-1.8574538230895996,-0.4251832067966461,-0.8543270230293274],"bufferView":0,"byteOffset":0},{"type":"VEC3","componentType":5126,"count":805,"bufferView":0,"byteOffset":12},{"type":"VEC2","componentType":5126,"count":805,"bufferView":0,"byteOffset":24},{"type":"SCALAR","componentType":5125,"count":1236,"bufferView":1,"byteOffset":0},{"type":"SCALAR","componentType":5125,"count":960,"bufferView":1,"byteOffset":4944},{"type":"SCALAR","componentType":5125,"count":192,"bufferView":1,"byteOffset":8784},{"type":"SCALAR","componentType":5125,"count":12,"bufferView":1,"byteOffset":9552},{"type":"SCALAR","componentType":5125,"count":264,"bufferView":1,"byteOffset":9600},{"type":"SCALAR","componentType":5125,"count":1446,"bufferView":1,"byteOffset":10656},{"type":"SCALAR","componentType":5125,"count":678,"bufferView":1,"byteOffset":16440},{"type":"SCALAR","componentType":5125,"count":12,"bufferView":1,"byteOffset":19152},{"type":"VEC3","componentType":5126,"count":567,"max":[2.8407204151153564,2.8086953163146973,0.6472222805023193],"min":[0.5652702450752258,-1.1832633018493652,-0.6535636186599731],"bufferView":2,"byteOffset":0},{"type":"VEC3","componentType":5126,"count":567,"bufferView":2,"byteOffset":12},{"type":"VEC2","componentType":5126,"count":567,"bufferView":2,"byteOffset":24},{"type":"VEC3","componentType":5126,"count":128,"max":[1.8618366718292236,1.0759131908416748,0.8543270230293274],"min":[-1.1786242723464966,-0.10405978560447693,-0.8543270230293274],"bufferView":3,"byteOffset":0},{"type":"VEC3","componentType":5126,"count":128,"bufferView":3,"byteOffset":12},{"type":"VEC2","componentType":5126,"count":128,"bufferView":3,"byteOffset":24},{"type":"VEC3","componentType":5126,"count":8,"max":[2.240774393081665,2.87827467918396,0.2072536051273346],"min":[2.12686824798584,2.815938949584961,-0.2086988091468811],"bufferView":4,"byteOffset":0},{"type":"VEC3","componentType":5126,"count":8,"bufferView":4,"byteOffset":12},{"type":"VEC2","componentType":5126,"count":8,"bufferView":4,"byteOffset":24},{"type":"VEC3","componentType":5126,"count":157,"max":[2.2159111499786377,2.8029561042785645,0.33723166584968567],"min":[-1.8574538230895996,-0.2878578007221222,-0.33723166584968567],"bufferView":5,"byteOffset":0},{"type":"VEC3","componentType":5126,"count":157,"bufferView":5,"byteOffset":12},{"type":"VEC2","componentType":5126,"count":157,"bufferView":5,"byteOffset":24},{"type":"VEC3","componentType":5126,"count":891,"max":[2.8407204151153564,2.974116563796997,0.6472222805023193],"min":[0.5652702450752258,-1.1832633018493652,-0.6535636186599731],"bufferView":6,"byteOffset":0},{"type":"VEC3","componentType":5126,"count":891,"bufferView":6,"byteOffset":12},{"type":"VEC2","componentType":5126,"count":891,"bufferView":6,"byteOffset":24},{"type":"VEC3","componentType":5126,"count":452,"max":[2.2184717655181885,1.322771430015564,0.8543270230293274],"min":[-1.1786242723464966,-0.4251832067966461,-0.8543270230293274],"bufferView":7,"byteOffset":0},{"type":"VEC3","componentType":5126,"count":452,"bufferView":7,"byteOffset":12},{"type":"VEC2","componentType":5126,"count":452,"bufferView":7,"byteOffset":24},{"type":"VEC3","componentType":5126,"count":8,"max":[2.240774393081665,2.87827467918396,0.2072536051273346],"min":[2.12686824798584,2.815938949584961,-0.2086988091468811],"bufferView":8,"byteOffset":0},{"type":"VEC3","componentType":5126,"count":8,"bufferView":8,"byteOffset":12},{"type":"VEC2","componentType":5126,"count":8,"bufferView":8,"byteOffset":24}],"bufferViews":[{"buffer":0,"byteOffset":0,"byteLength":25760,"byteStride":32,"target":34962},{"buffer":0,"byteOffset":25760,"byteLength":19200,"target":34963},{"buffer":0,"byteOffset":44960,"byteLength":18144,"byteStride":32,"target":34962},{"buffer":0,"byteOffset":63104,"byteLength":4096,"byteStride":32,"target":34962},{"buffer":0,"byteOffset":67200,"byteLength":256,"byteStride":32,"target":34962},{"buffer":0,"byteOffset":67456,"byteLength":5024,"byteStride":32,"target":34962},{"buffer":0,"byteOffset":72480,"byteLength":28512,"byteStride":32,"target":34962},{"buffer":0,"byteOffset":100992,"byteLength":14464,"byteStride":32,"target":34962},{"buffer":0,"byteOffset":115456,"byteLength":256,"byteStride":32,"target":34962}],"buffers":[{"uri":"scene.bin","byteLength":115712}],"materials":[{"name":"White","doubleSided":true,"pbrMetallicRoughness":{"baseColorFactor":[0.8,0.8,0.8,1],"roughnessFactor":0.5,"metallicFactor":0},"extensions":{"KHR_materials_ior":{"ior":1000},"KHR_materials_specular":{"specularColorFactor":[0,0,0]}}},{"name":"Orange","doubleSided":true,"pbrMetallicRoughness":{"baseColorFactor":[0.7999999999999999,0.19698700000000013,0.03570080000000002,1],"roughnessFactor":0.5,"metallicFactor":0},"extensions":{"KHR_materials_ior":{"ior":1000},"KHR_materials_specular":{"specularColorFactor":[0,0,0]}}},{"name":"Shade","doubleSided":true,"pbrMetallicRoughness":{"baseColorFactor":[0.420027,0.420027,0.420027,1],"roughnessFactor":0.5,"metallicFactor":0},"extensions":{"KHR_materials_ior":{"ior":1000},"KHR_materials_specular":{"specularColorFactor":[0,0,0]}}},{"name":"BLack","doubleSided":true,"pbrMetallicRoughness":{"baseColorFactor":[0,0,0,1],"roughnessFactor":0.5,"metallicFactor":0},"extensions":{"KHR_materials_ior":{"ior":1000},"KHR_materials_specular":{"specularColorFactor":[0,0,0]}}},{"name":"White.002","doubleSided":true,"pbrMetallicRoughness":{"baseColorFactor":[0.8,0.8,0.8,1],"roughnessFactor":0.5,"metallicFactor":0},"extensions":{"KHR_materials_ior":{"ior":1000},"KHR_materials_specular":{"specularColorFactor":[0,0,0]}}},{"name":"Grey.004","doubleSided":true,"pbrMetallicRoughness":{"baseColorFactor":[0.0219796,0.0219796,0.0219796,1],"roughnessFactor":0.5,"metallicFactor":0},"extensions":{"KHR_materials_ior":{"ior":1000},"KHR_materials_specular":{"specularColorFactor":[0,0,0]}}},{"name":"Brown","doubleSided":true,"pbrMetallicRoughness":{"baseColorFactor":[0.214032,0.107869,0.0751956,1],"roughnessFactor":0.5,"metallicFactor":0},"extensions":{"KHR_materials_ior":{"ior":1000},"KHR_materials_specular":{"specularColorFactor":[0,0,0]}}},{"name":"Bkack","doubleSided":true,"pbrMetallicRoughness":{"baseColorFactor":[0,0,0,1],"roughnessFactor":0.5,"metallicFactor":0},"extensions":{"KHR_materials_ior":{"ior":1000},"KHR_materials_specular":{"specularColorFactor":[0,0,0]}}}],"meshes":[{"name":"Object_0","primitives":[{"attributes":{"NORMAL":1,"POSITION":0,"TEXCOORD_0":2},"mode":4,"material":0,"indices":3}]},{"name":"Object_1","primitives":[{"attributes":{"NORMAL":12,"POSITION":11,"TEXCOORD_0":13},"mode":4,"material":1,"indices":4}]},{"name":"Object_2","primitives":[{"attributes":{"NORMAL":15,"POSITION":14,"TEXCOORD_0":16},"mode":4,"material":2,"indices":5}]},{"name":"Object_3","primitives":[{"attributes":{"NORMAL":18,"POSITION":17,"TEXCOORD_0":19},"mode":4,"material":3,"indices":6}]},{"name":"Object_4","primitives":[{"attributes":{"NORMAL":21,"POSITION":20,"TEXCOORD_0":22},"mode":4,"material":4,"indices":7}]},{"name":"Object_5","primitives":[{"attributes":{"NORMAL":24,"POSITION":23,"TEXCOORD_0":25},"mode":4,"material":5,"indices":8}]},{"name":"Object_6","primitives":[{"attributes":{"NORMAL":27,"POSITION":26,"TEXCOORD_0":28},"mode":4,"material":6,"indices":9}]},{"name":"Object_7","primitives":[{"attributes":{"NORMAL":30,"POSITION":29,"TEXCOORD_0":31},"mode":4,"material":7,"indices":10}]}],"nodes":[{"name":"Sketchfab_model","rotation":[-0.7071067811865475,0,0,0.7071067811865476],"children":[1]},{"name":"root","children":[2]},{"name":"GLTF_SceneRootNode","rotation":[0.7071067811865475,0,0,0.7071067811865476],"children":[3,8]},{"name":"Cube_0","translation":[0.04001818224787712,0.9217081069946289,0],"children":[4,5,6,7]},{"name":"Object_4","mesh":0},{"name":"Object_5","mesh":1},{"name":"Object_6","mesh":2},{"name":"Object_7","mesh":3},{"name":"Cube.001_3","translation":[-0.38810995221138,0.9217081069946289,-2.74215030670166],"children":[9,10,11,12]},{"name":"Object_9","mesh":4},{"name":"Object_10","mesh":5},{"name":"Object_11","mesh":6},{"name":"Object_12","mesh":7}],"scenes":[{"name":"Sketchfab_Scene","nodes":[0]}],"scene":0,"extensionsUsed":["KHR_materials_ior","KHR_materials_specular"]}